<svg xmlns="http://www.w3.org/2000/svg" shape-rendering="geometricPrecision" text-rendering="geometricPrecision" image-rendering="optimizeQuality" fill-rule="evenodd" clip-rule="evenodd" viewBox="0 0 512 360.12"><path d="M180.06 28.28c83.82 0 151.77 67.95 151.77 151.78 0 83.82-67.95 151.77-151.77 151.77-83.83 0-151.78-67.95-151.78-151.77 0-83.83 67.95-151.78 151.78-151.78zm0-28.28c49.71 0 94.73 20.16 127.32 52.74 32.58 32.58 52.74 77.6 52.74 127.32 0 7.43-.46 14.75-1.33 21.94 2.62-4.07 5.27-8.04 7.98-11.9l.09-.13.04-.06.05-.07c11.55-16.44 23.91-30.82 37.5-42.95 5.65-5.06 11.51-9.72 17.61-13.97.24-.2.5-.38.77-.54 23.37-16.14 50.14-26.32 81.85-29.79a6.619 6.619 0 0 1 7.27 5.87l.03.7.02 88.44c0 3.66-2.96 6.62-6.62 6.62l-.75-.04c-67.81-2.13-105.67 30.84-143.52 63.81-18.6 16.2-37.21 32.4-59.54 44.93-32.02 29.31-74.68 47.2-121.51 47.2-49.72 0-94.74-20.16-127.32-52.74C20.16 274.79 0 229.77 0 180.06c0-49.72 20.16-94.74 52.74-127.32S130.34 0 180.06 0zm164.6 253.13c-3.23 7.27-6.93 14.29-11.06 21.01 6.36-5.27 12.59-10.7 18.82-16.13 9.55-8.32 19.1-16.64 29.11-24.44l-10.68-25.92c-8.62 13.29-16.83 27.87-24.81 43.64-.36.71-.83 1.33-1.38 1.84zm-56.18 53.27c.6-1.21 1.57-2.25 2.85-2.92l1.14-.61c1.81-1.66 3.58-3.35 5.31-5.09 30.13-30.12 48.77-71.75 48.77-117.72 0-45.98-18.64-87.6-48.77-117.73-30.12-30.12-71.75-48.76-117.72-48.76-45.98 0-87.6 18.64-117.73 48.76-30.12 30.13-48.76 71.75-48.76 117.73 0 45.97 18.64 87.6 48.76 117.72 30.13 30.13 71.75 48.76 117.73 48.76 41.41 0 79.29-15.12 108.42-40.14zm103.97-80.98c12.11-8.6 25.08-16.25 39.62-22.16l-10.38-53.65c-2.87 2.26-5.69 4.63-8.46 7.1-12.02 10.74-23.08 23.43-33.49 37.9l12.71 30.81zm52.2-26.69c15.9-4.99 33.67-7.9 54.11-7.84v-74.22c-24.8 3.67-46.24 11.97-65.26 24.43l11.15 57.63zm-236.72-92.3c-4.83 15.41-19.23 26.59-36.24 26.59-14.36 0-26.86-7.97-33.32-19.74 12.09-7.56 26.38-11.94 41.69-11.94 9.82 0 19.21 1.8 27.87 5.09zm23.1 13.65c16.97 14.43 27.74 35.95 27.74 59.98 0 1.1-.02 2.2-.07 3.29-20.68-.34-37.33-17.2-37.33-37.96 0-9.73 3.65-18.59 9.66-25.31zm21.19 91.45c-9.57 21.93-28.84 38.65-52.39 44.74-.9-3.25-1.39-6.66-1.39-10.19 0-20.98 17-37.98 37.98-37.98 5.64 0 10.99 1.23 15.8 3.43zm-80.49 46.8c-24.37-2.56-45.42-16.24-58-35.88a37.823 37.823 0 0 1 20.2-5.81c20.98 0 37.98 17 37.98 37.98 0 1.25-.06 2.49-.18 3.71zm-67.48-57.03a78.703 78.703 0 0 1-2.9-21.24c0-18.42 6.32-35.35 16.92-48.76 9.56 7.24 15.74 18.7 15.74 31.62 0 18.48-12.65 34-29.76 38.38zm67.44-150.86c24.62 0 44.6 20 44.6 44.6 0 12.31-4.99 23.47-13.07 31.54-8.06 8.07-19.22 13.06-31.53 13.06-12.3 0-23.44-4.99-31.51-13.06-8.09-8.07-13.09-19.23-13.09-31.54 0-12.28 5-23.42 13.07-31.51l.02-.02c8.1-8.08 19.23-13.07 31.51-13.07zm87.65 50.35c12.32 0 23.47 4.99 31.54 13.06l.36.39c7.86 8.04 12.7 19.03 12.7 31.15 0 24.63-19.97 44.59-44.6 44.59-12.31 0-23.46-4.99-31.53-13.06s-13.06-19.23-13.06-31.53 4.99-23.44 13.06-31.51c8.07-8.1 19.23-13.09 31.53-13.09zm-22.92 100.69c12.31 0 23.47 5 31.54 13.06 8.06 8.07 13.06 19.23 13.06 31.54 0 12.31-5 23.46-13.06 31.53l-.39.36c-8.05 7.86-19.05 12.71-31.15 12.71-12.28 0-23.42-5-31.51-13.07l-.02-.03c-8.08-8.09-13.07-19.22-13.07-31.5 0-12.29 5-23.44 13.08-31.52 8.06-8.08 19.21-13.08 31.52-13.08zm-102.49 8.54c12.32 0 23.47 4.99 31.54 13.06s13.06 19.22 13.06 31.54c0 12.29-4.99 23.43-13.06 31.51-8.07 8.09-19.22 13.09-31.54 13.09-12.3 0-23.46-5-31.53-13.07l-.36-.39c-7.86-8.04-12.7-19.03-12.7-31.14 0-12.31 4.99-23.47 13.06-31.54s19.22-13.06 31.53-13.06zm-39.55-93.35c12.76 0 24.33 5.18 32.7 13.55 8.36 8.37 13.55 19.93 13.55 32.7 0 12.76-5.19 24.33-13.55 32.7-8.37 8.37-19.94 13.55-32.7 13.55-12.74 0-24.3-5.18-32.68-13.55l-.02-.03c-8.38-8.39-13.55-19.94-13.55-32.67 0-12.74 5.18-24.3 13.55-32.68l.02-.02c8.4-8.38 19.95-13.55 32.68-13.55zm85.68 45.3c9.99 0 18.08 8.1 18.08 18.09 0 9.98-8.09 18.08-18.08 18.08-9.99 0-18.09-8.1-18.09-18.08 0-9.99 8.1-18.09 18.09-18.09z"/></svg>